<svg width="38" height="37" viewBox="0 0 38 37" fill="none" xmlns="http://www.w3.org/2000/svg">
<path d="M29.2081 36.1409C28.7592 36.1409 28.3125 36.0032 27.9281 35.7287L18.8892 29.2465L9.85029 35.7287C9.4758 35.9981 9.02575 36.1423 8.56441 36.1407C8.10307 36.1392 7.65403 35.9918 7.28141 35.7198C6.90843 35.4494 6.63025 35.0682 6.48642 34.6306C6.34259 34.1929 6.34045 33.721 6.4803 33.282L9.85141 22.402L0.893629 16.0898C0.522386 15.8158 0.246679 15.4321 0.105508 14.9928C-0.0356644 14.5535 -0.0351555 14.081 0.106962 13.642C0.250201 13.2041 0.527436 12.8223 0.899484 12.5506C1.27153 12.2788 1.71958 12.1309 2.1803 12.1276L13.2747 12.1109L16.807 1.50093C16.9527 1.06385 17.2323 0.683703 17.6061 0.414328C17.9799 0.144952 18.429 0 18.8897 0C19.3505 0 19.7996 0.144952 20.1734 0.414328C20.5472 0.683703 20.8267 1.06385 20.9725 1.50093L24.4447 12.1109L35.5958 12.1276C36.0571 12.1302 36.5058 12.2781 36.8783 12.5503C37.2507 12.8224 37.5279 13.205 37.6704 13.6437C37.813 14.0824 37.8137 14.5549 37.6725 14.994C37.5313 15.4331 37.2552 15.8165 36.8836 16.0898L27.9258 22.402L31.297 33.282C31.4371 33.7209 31.4352 34.1927 31.2916 34.6304C31.1479 35.0681 30.8699 35.4494 30.497 35.7198C30.1232 35.994 29.6716 36.1415 29.2081 36.1409Z" fill="#FFAC33"/>
</svg>
